<svg width="41" height="12" viewBox="0 0 41 12" fill="none" xmlns="http://www.w3.org/2000/svg">
<path d="M9.86861 4.38281H7.69105C7.65128 4.10109 7.57008 3.85085 7.44744 3.6321C7.32481 3.41004 7.16738 3.22112 6.97514 3.06534C6.78291 2.90956 6.56084 2.79025 6.30895 2.70739C6.06037 2.62453 5.79025 2.5831 5.49858 2.5831C4.97159 2.5831 4.51255 2.71402 4.12145 2.97585C3.73035 3.23437 3.42708 3.61222 3.21165 4.10938C2.99621 4.60322 2.88849 5.20312 2.88849 5.90909C2.88849 6.63494 2.99621 7.24479 3.21165 7.73864C3.4304 8.23248 3.73532 8.60535 4.12642 8.85724C4.51752 9.10914 4.96993 9.23509 5.48366 9.23509C5.77202 9.23509 6.03883 9.19697 6.28409 9.12074C6.53267 9.04451 6.75308 8.93348 6.94531 8.78764C7.13755 8.63849 7.29664 8.45786 7.42259 8.24574C7.55185 8.03362 7.64134 7.79167 7.69105 7.51989L9.86861 7.52983C9.81226 7.99716 9.6714 8.44792 9.44602 8.8821C9.22396 9.31297 8.92401 9.6991 8.54617 10.0405C8.17164 10.3786 7.7242 10.647 7.20384 10.8459C6.68679 11.0414 6.1018 11.1392 5.44886 11.1392C4.54072 11.1392 3.72869 10.9337 3.01278 10.5227C2.30019 10.1117 1.73674 9.51681 1.32244 8.73793C0.911458 7.95904 0.705966 7.0161 0.705966 5.90909C0.705966 4.79877 0.914773 3.85417 1.33239 3.07528C1.75 2.2964 2.31676 1.70312 3.03267 1.29545C3.74858 0.884469 4.55398 0.678977 5.44886 0.678977C6.03883 0.678977 6.5857 0.761837 7.08949 0.927557C7.59659 1.09328 8.04569 1.33523 8.43679 1.65341C8.82789 1.96828 9.14607 2.3544 9.39134 2.81179C9.63991 3.26918 9.79901 3.79285 9.86861 4.38281ZM17.7013 0.818182H19.854V7.4304C19.854 8.17282 19.6767 8.82244 19.3221 9.37926C18.9708 9.93608 18.4786 10.3703 17.8455 10.6818C17.2125 10.9901 16.475 11.1442 15.6332 11.1442C14.788 11.1442 14.0489 10.9901 13.4158 10.6818C12.7828 10.3703 12.2906 9.93608 11.9393 9.37926C11.5879 8.82244 11.4123 8.17282 11.4123 7.4304V0.818182H13.565V7.24645C13.565 7.63423 13.6495 7.97893 13.8185 8.28054C13.9909 8.58215 14.2328 8.81913 14.5444 8.99148C14.8559 9.16383 15.2189 9.25 15.6332 9.25C16.0508 9.25 16.4137 9.16383 16.7219 8.99148C17.0335 8.81913 17.2738 8.58215 17.4428 8.28054C17.6152 7.97893 17.7013 7.63423 17.7013 7.24645V0.818182ZM30.1415 0.818182V11H28.2821L23.8525 4.59162H23.7779V11H21.6252V0.818182H23.5144L27.9093 7.22159H27.9988V0.818182H30.1415ZM31.3235 0.818182H33.7347L36.0565 5.20312H36.1559L38.4776 0.818182H40.8888L37.1751 7.40057V11H35.0373V7.40057L31.3235 0.818182Z" fill="white"/>
</svg>
