<svg width="108" height="70" viewBox="0 0 108 70" fill="none" xmlns="http://www.w3.org/2000/svg">
<path d="M21.8701 8.66493H16.8237C16.7315 8.01205 16.5434 7.43213 16.2592 6.92519C15.975 6.41056 15.6101 5.97275 15.1646 5.61174C14.7191 5.25073 14.2045 4.97422 13.6207 4.7822C13.0447 4.59017 12.4187 4.49416 11.7427 4.49416C10.5215 4.49416 9.45765 4.79756 8.5513 5.40435C7.64494 6.00347 6.94213 6.8791 6.44287 8.03125C5.9436 9.17571 5.69397 10.566 5.69397 12.202C5.69397 13.8842 5.9436 15.2975 6.44287 16.4419C6.94981 17.5864 7.65646 18.4505 8.56282 19.0342C9.46917 19.618 10.5176 19.9099 11.7082 19.9099C12.3764 19.9099 12.9947 19.8215 13.5631 19.6449C14.1392 19.4682 14.65 19.2109 15.0955 18.8729C15.541 18.5273 15.9097 18.1087 16.2015 17.6171C16.5011 17.1255 16.7085 16.5648 16.8237 15.935L21.8701 15.958C21.7395 17.041 21.4131 18.0856 20.8908 19.0919C20.3762 20.0904 19.681 20.9852 18.8054 21.7764C17.9374 22.5598 16.9005 23.182 15.6946 23.6428C14.4964 24.096 13.1407 24.3226 11.6275 24.3226C9.52294 24.3226 7.6411 23.8464 5.98201 22.8939C4.3306 21.9415 3.02483 20.5628 2.06471 18.7577C1.11227 16.9527 0.636048 14.7675 0.636048 12.202C0.636048 9.62889 1.11995 7.43981 2.08775 5.63478C3.05556 3.82975 4.369 2.45486 6.02809 1.5101C7.68719 0.557658 9.55366 0.081437 11.6275 0.081437C12.9947 0.081437 14.2621 0.273461 15.4296 0.65751C16.6048 1.04156 17.6456 1.60227 18.5519 2.33964C19.4583 3.06934 20.1957 3.96417 20.764 5.02415C21.3401 6.08412 21.7088 7.29772 21.8701 8.66493ZM40.0222 0.404038H45.011V15.7276C45.011 17.4481 44.6 18.9536 43.7782 20.244C42.964 21.5344 41.8234 22.5406 40.3563 23.2626C38.8892 23.977 37.1802 24.3341 35.2292 24.3341C33.2706 24.3341 31.5577 23.977 30.0907 23.2626C28.6236 22.5406 27.483 21.5344 26.6688 20.244C25.8546 18.9536 25.4475 17.4481 25.4475 15.7276V0.404038H30.4363V15.3013C30.4363 16.2 30.6322 16.9988 31.0239 17.6978C31.4233 18.3967 31.984 18.9459 32.706 19.3453C33.4281 19.7447 34.2691 19.9444 35.2292 19.9444C36.1971 19.9444 37.0381 19.7447 37.7524 19.3453C38.4745 18.9459 39.0313 18.3967 39.4231 17.6978C39.8225 16.9988 40.0222 16.2 40.0222 15.3013V0.404038ZM68.8518 0.404038V24H64.5427L54.2771 9.14883H54.1043V24H49.1155V0.404038H53.4937L63.6786 15.2437H63.886V0.404038H68.8518ZM71.591 0.404038H77.1789L82.5594 10.566H82.7899L88.1704 0.404038H93.7583L85.1518 15.6585V24H80.1975V15.6585L71.591 0.404038ZM9.41541 63H1.05082V39.404H9.48453C11.858 39.404 13.9011 39.8764 15.614 40.8212C17.3268 41.7583 18.6441 43.1063 19.5658 44.8652C20.4952 46.6242 20.9599 48.7287 20.9599 51.179C20.9599 53.6369 20.4952 55.7492 19.5658 57.5158C18.6441 59.2824 17.3191 60.6381 15.5909 61.5829C13.8704 62.5276 11.8119 63 9.41541 63ZM6.03962 58.7255H9.20802C10.6828 58.7255 11.9232 58.4644 12.9295 57.9421C13.9433 57.4121 14.7038 56.5941 15.2107 55.488C15.7253 54.3743 15.9826 52.9379 15.9826 51.179C15.9826 49.4354 15.7253 48.0106 15.2107 46.9045C14.7038 45.7985 13.9472 44.9843 12.941 44.462C11.9348 43.9397 10.6943 43.6785 9.21954 43.6785H6.03962V58.7255ZM32.6283 63.3456C30.8079 63.3456 29.241 62.977 27.9275 62.2396C26.6218 61.4945 25.6155 60.4422 24.9089 59.0827C24.2022 57.7155 23.8489 56.0986 23.8489 54.2322C23.8489 52.4118 24.2022 50.8141 24.9089 49.4392C25.6155 48.0643 26.6102 46.9928 27.893 46.2247C29.1834 45.4566 30.6965 45.0726 32.4324 45.0726C33.5999 45.0726 34.6868 45.2608 35.693 45.6372C36.7069 46.0058 37.5902 46.5627 38.3429 47.3078C39.1033 48.0528 39.6948 48.9899 40.1172 50.119C40.5397 51.2404 40.7509 52.5539 40.7509 54.0593V55.4074H25.8076V52.3657H36.1308C36.1308 51.659 35.9772 51.033 35.6699 50.4877C35.3627 49.9423 34.9364 49.516 34.3911 49.2088C33.8534 48.8939 33.2274 48.7364 32.5131 48.7364C31.768 48.7364 31.1074 48.9092 30.5314 49.2549C29.963 49.5929 29.5175 50.0499 29.1949 50.6259C28.8723 51.1943 28.7071 51.828 28.6995 52.527V55.4189C28.6995 56.2945 28.8608 57.0511 29.1834 57.6886C29.5136 58.3261 29.9783 58.8177 30.5775 59.1634C31.1766 59.509 31.8871 59.6818 32.7089 59.6818C33.2543 59.6818 33.7535 59.605 34.2067 59.4514C34.6599 59.2978 35.0478 59.0673 35.3704 58.7601C35.693 58.4529 35.9388 58.0765 36.1078 57.631L40.6472 57.9306C40.4168 59.0213 39.9444 59.9737 39.2301 60.7879C38.5234 61.5944 37.6094 62.2242 36.488 62.6774C35.3742 63.1229 34.0877 63.3456 32.6283 63.3456ZM58.6783 50.3494L54.1849 50.6259C54.1081 50.2419 53.943 49.8963 53.6895 49.589C53.436 49.2741 53.1019 49.0245 52.6872 48.8401C52.2801 48.6481 51.7923 48.5521 51.2239 48.5521C50.4635 48.5521 49.8221 48.7134 49.2998 49.036C48.7775 49.3509 48.5164 49.7734 48.5164 50.3033C48.5164 50.7258 48.6854 51.083 49.0233 51.3748C49.3613 51.6667 49.9412 51.901 50.7631 52.0777L53.966 52.7229C55.6866 53.0762 56.9693 53.6446 57.8142 54.428C58.6591 55.2115 59.0816 56.2407 59.0816 57.5158C59.0816 58.6756 58.7398 59.6933 58.0562 60.569C57.3802 61.4446 56.4508 62.1282 55.268 62.6198C54.0928 63.1037 52.7371 63.3456 51.2009 63.3456C48.8582 63.3456 46.9917 62.8579 45.6015 61.8824C44.2189 60.8993 43.4085 59.5628 43.1704 57.8729L47.9979 57.6195C48.1439 58.3338 48.4972 58.8792 49.0579 59.2555C49.6186 59.6242 50.3368 59.8086 51.2124 59.8086C52.0727 59.8086 52.764 59.6434 53.2863 59.3131C53.8163 58.9752 54.0851 58.5412 54.0928 58.0112C54.0851 57.5657 53.8969 57.2009 53.5282 56.9167C53.1595 56.6248 52.5911 56.402 51.823 56.2484L48.7583 55.6378C47.0301 55.2921 45.7435 54.693 44.8986 53.8404C44.0614 52.9878 43.6428 51.901 43.6428 50.5799C43.6428 49.4431 43.95 48.4638 44.5645 47.6419C45.1867 46.82 46.0585 46.1863 47.1799 45.7408C48.309 45.2953 49.6301 45.0726 51.1433 45.0726C53.3784 45.0726 55.1374 45.545 56.4201 46.4897C57.7105 47.4345 58.4632 48.7211 58.6783 50.3494ZM62.1722 63V45.303H67.0803V63H62.1722ZM64.6378 43.0218C63.9081 43.0218 63.2821 42.7798 62.7598 42.2959C62.2452 41.8043 61.9879 41.2167 61.9879 40.5331C61.9879 39.8572 62.2452 39.2773 62.7598 38.7934C63.2821 38.3018 63.9081 38.056 64.6378 38.056C65.3675 38.056 65.9896 38.3018 66.5043 38.7934C67.0266 39.2773 67.2877 39.8572 67.2877 40.5331C67.2877 41.2167 67.0266 41.8043 66.5043 42.2959C65.9896 42.7798 65.3675 43.0218 64.6378 43.0218ZM78.9849 70.0051C77.3949 70.0051 76.0316 69.7861 74.8948 69.3483C73.7657 68.9182 72.867 68.3306 72.1988 67.5855C71.5305 66.8405 71.0965 66.0033 70.8968 65.0739L75.4363 64.4632C75.5745 64.8166 75.7934 65.1468 76.093 65.4541C76.3926 65.7613 76.7881 66.0071 77.2797 66.1914C77.779 66.3835 78.3858 66.4795 79.1001 66.4795C80.1678 66.4795 81.0472 66.2183 81.7385 65.696C82.4375 65.1814 82.787 64.3173 82.787 63.1037V59.8662H82.5796C82.3645 60.3577 82.0419 60.8224 81.6118 61.2603C81.1817 61.6981 80.6286 62.0552 79.9527 62.3318C79.2768 62.6083 78.4703 62.7465 77.5332 62.7465C76.2044 62.7465 74.9946 62.4393 73.9039 61.8248C72.8209 61.2027 71.9568 60.2541 71.3116 58.979C70.6741 57.6963 70.3553 56.0756 70.3553 54.1169C70.3553 52.1122 70.6818 50.4378 71.3346 49.0936C71.9875 47.7494 72.8555 46.7432 73.9385 46.075C75.0292 45.4067 76.2236 45.0726 77.5217 45.0726C78.5125 45.0726 79.3421 45.2416 80.0103 45.5795C80.6785 45.9098 81.2162 46.3246 81.6233 46.8239C82.0381 47.3154 82.3568 47.7993 82.5796 48.2756H82.7639V45.303H87.6375V63.1728C87.6375 64.6783 87.2688 65.938 86.5315 66.9519C85.7941 67.9658 84.7725 68.7262 83.4667 69.2331C82.1687 69.7477 80.6747 70.0051 78.9849 70.0051ZM79.0886 59.0597C79.8797 59.0597 80.548 58.8638 81.0933 58.4721C81.6464 58.0727 82.0688 57.5043 82.3607 56.7669C82.6602 56.0218 82.81 55.1308 82.81 54.0939C82.81 53.057 82.6641 52.1583 82.3722 51.3979C82.0803 50.6298 81.6579 50.0345 81.1048 49.6121C80.5518 49.1896 79.8797 48.9784 79.0886 48.9784C78.2821 48.9784 77.6023 49.1973 77.0493 49.6351C76.4963 50.0652 76.0776 50.6644 75.7934 51.4324C75.5093 52.2005 75.3672 53.0877 75.3672 54.0939C75.3672 55.1155 75.5093 55.9988 75.7934 56.7438C76.0853 57.4812 76.5039 58.0535 77.0493 58.4605C77.6023 58.86 78.2821 59.0597 79.0886 59.0597ZM96.4514 52.7689V63H91.5433V45.303H96.221V48.4253H96.4284C96.8201 47.3961 97.4768 46.5819 98.3986 45.9828C99.3203 45.376 100.438 45.0726 101.751 45.0726C102.98 45.0726 104.052 45.3414 104.966 45.8791C105.88 46.4168 106.59 47.1849 107.097 48.1834C107.604 49.1742 107.858 50.3571 107.858 51.732V63H102.95V52.6076C102.957 51.5246 102.681 50.6797 102.12 50.0729C101.559 49.4584 100.787 49.1512 99.8042 49.1512C99.1436 49.1512 98.5599 49.2933 98.0529 49.5775C97.5537 49.8617 97.1619 50.2765 96.8777 50.8218C96.6012 51.3595 96.4591 52.0085 96.4514 52.7689Z" fill="white"/>
</svg>
