<svg width="74" height="34" viewBox="0 0 74 34" fill="none" xmlns="http://www.w3.org/2000/svg">
<path d="M9.86861 7.38281H7.69105C7.65128 7.10109 7.57008 6.85085 7.44744 6.6321C7.32481 6.41004 7.16738 6.22112 6.97514 6.06534C6.78291 5.90956 6.56084 5.79025 6.30895 5.70739C6.06037 5.62453 5.79025 5.5831 5.49858 5.5831C4.97159 5.5831 4.51255 5.71402 4.12145 5.97585C3.73035 6.23437 3.42708 6.61222 3.21165 7.10938C2.99621 7.60322 2.88849 8.20312 2.88849 8.90909C2.88849 9.63494 2.99621 10.2448 3.21165 10.7386C3.4304 11.2325 3.73532 11.6054 4.12642 11.8572C4.51752 12.1091 4.96993 12.2351 5.48366 12.2351C5.77202 12.2351 6.03883 12.197 6.28409 12.1207C6.53267 12.0445 6.75308 11.9335 6.94531 11.7876C7.13755 11.6385 7.29664 11.4579 7.42259 11.2457C7.55185 11.0336 7.64134 10.7917 7.69105 10.5199L9.86861 10.5298C9.81226 10.9972 9.6714 11.4479 9.44602 11.8821C9.22396 12.313 8.92401 12.6991 8.54617 13.0405C8.17164 13.3786 7.7242 13.647 7.20384 13.8459C6.68679 14.0414 6.1018 14.1392 5.44886 14.1392C4.54072 14.1392 3.72869 13.9337 3.01278 13.5227C2.30019 13.1117 1.73674 12.5168 1.32244 11.7379C0.911458 10.959 0.705966 10.0161 0.705966 8.90909C0.705966 7.79877 0.914773 6.85417 1.33239 6.07528C1.75 5.2964 2.31676 4.70312 3.03267 4.29545C3.74858 3.88447 4.55398 3.67898 5.44886 3.67898C6.03883 3.67898 6.5857 3.76184 7.08949 3.92756C7.59659 4.09328 8.04569 4.33523 8.43679 4.65341C8.82789 4.96828 9.14607 5.3544 9.39134 5.81179C9.63991 6.26918 9.79901 6.79285 9.86861 7.38281ZM17.7013 3.81818H19.854V10.4304C19.854 11.1728 19.6767 11.8224 19.3221 12.3793C18.9708 12.9361 18.4786 13.3703 17.8455 13.6818C17.2125 13.9901 16.475 14.1442 15.6332 14.1442C14.788 14.1442 14.0489 13.9901 13.4158 13.6818C12.7828 13.3703 12.2906 12.9361 11.9393 12.3793C11.5879 11.8224 11.4123 11.1728 11.4123 10.4304V3.81818H13.565V10.2464C13.565 10.6342 13.6495 10.9789 13.8185 11.2805C13.9909 11.5821 14.2328 11.8191 14.5444 11.9915C14.8559 12.1638 15.2189 12.25 15.6332 12.25C16.0508 12.25 16.4137 12.1638 16.7219 11.9915C17.0335 11.8191 17.2738 11.5821 17.4428 11.2805C17.6152 10.9789 17.7013 10.6342 17.7013 10.2464V3.81818ZM30.1415 3.81818V14H28.2821L23.8525 7.59162H23.7779V14H21.6252V3.81818H23.5144L27.9093 10.2216H27.9988V3.81818H30.1415ZM31.3235 3.81818H33.7347L36.0565 8.20312H36.1559L38.4776 3.81818H40.8888L37.1751 10.4006V14H35.0373V10.4006L31.3235 3.81818Z" fill="black"/>
<path d="M41.8686 24.3828H39.6911C39.6513 24.1011 39.5701 23.8509 39.4474 23.6321C39.3248 23.41 39.1674 23.2211 38.9751 23.0653C38.7829 22.9096 38.5608 22.7902 38.3089 22.7074C38.0604 22.6245 37.7902 22.5831 37.4986 22.5831C36.9716 22.5831 36.5125 22.714 36.1214 22.9759C35.7304 23.2344 35.4271 23.6122 35.2116 24.1094C34.9962 24.6032 34.8885 25.2031 34.8885 25.9091C34.8885 26.6349 34.9962 27.2448 35.2116 27.7386C35.4304 28.2325 35.7353 28.6054 36.1264 28.8572C36.5175 29.1091 36.9699 29.2351 37.4837 29.2351C37.772 29.2351 38.0388 29.197 38.2841 29.1207C38.5327 29.0445 38.7531 28.9335 38.9453 28.7876C39.1375 28.6385 39.2966 28.4579 39.4226 28.2457C39.5518 28.0336 39.6413 27.7917 39.6911 27.5199L41.8686 27.5298C41.8123 27.9972 41.6714 28.4479 41.446 28.8821C41.224 29.313 40.924 29.6991 40.5462 30.0405C40.1716 30.3786 39.7242 30.647 39.2038 30.8459C38.6868 31.0414 38.1018 31.1392 37.4489 31.1392C36.5407 31.1392 35.7287 30.9337 35.0128 30.5227C34.3002 30.1117 33.7367 29.5168 33.3224 28.7379C32.9115 27.959 32.706 27.0161 32.706 25.9091C32.706 24.7988 32.9148 23.8542 33.3324 23.0753C33.75 22.2964 34.3168 21.7031 35.0327 21.2955C35.7486 20.8845 36.554 20.679 37.4489 20.679C38.0388 20.679 38.5857 20.7618 39.0895 20.9276C39.5966 21.0933 40.0457 21.3352 40.4368 21.6534C40.8279 21.9683 41.1461 22.3544 41.3913 22.8118C41.6399 23.2692 41.799 23.7929 41.8686 24.3828ZM49.7013 20.8182H51.854V27.4304C51.854 28.1728 51.6767 28.8224 51.3221 29.3793C50.9708 29.9361 50.4786 30.3703 49.8455 30.6818C49.2125 30.9901 48.475 31.1442 47.6332 31.1442C46.788 31.1442 46.0489 30.9901 45.4158 30.6818C44.7828 30.3703 44.2906 29.9361 43.9393 29.3793C43.5879 28.8224 43.4123 28.1728 43.4123 27.4304V20.8182H45.565V27.2464C45.565 27.6342 45.6495 27.9789 45.8185 28.2805C45.9909 28.5821 46.2328 28.8191 46.5444 28.9915C46.8559 29.1638 47.2189 29.25 47.6332 29.25C48.0508 29.25 48.4137 29.1638 48.7219 28.9915C49.0335 28.8191 49.2738 28.5821 49.4428 28.2805C49.6152 27.9789 49.7013 27.6342 49.7013 27.2464V20.8182ZM62.1415 20.8182V31H60.2821L55.8525 24.5916H55.7779V31H53.6252V20.8182H55.5144L59.9093 27.2216H59.9988V20.8182H62.1415ZM63.3235 20.8182H65.7347L68.0565 25.2031H68.1559L70.4776 20.8182H72.8888L69.1751 27.4006V31H67.0373V27.4006L63.3235 20.8182Z" fill="black"/>
</svg>
